<?xml version="1.0" encoding="utf-8"?>
<!-- Generator: Adobe Illustrator 22.1.0, SVG Export Plug-In . SVG Version: 6.00 Build 0)  -->
<svg version="1.1" id="Layer_1" xmlns="http://www.w3.org/2000/svg" xmlns:xlink="http://www.w3.org/1999/xlink" x="0px" y="0px"
	 viewBox="0 0 396.23 102.52" style="enable-background:new 0 0 396.23 102.52;" xml:space="preserve">
<g>
	<g>
		<path style="fill:none;" d="M114.53,42.12l1.26,0.4c-0.4-2.6-1.47-4.9-2.88-7.11c-1.2-1.86-1.99-3.93-2.72-6.01
			c-1.66-4.73-2.74-9.72-5.77-13.84c-6.07-0.27-11.97,2.68-15.44,7.61c-1.92,2.72-2.84,5.98-4.27,8.96
			c-1.64,3.39-4.27,6.64-5.01,10.38c-1.88,9.53,7.69,16.52,16.36,17.08c7.45-0.74,17.39-3.15,19.52-11.42
			c-0.16-0.09-0.31-0.2-0.44-0.33l-2.43-2.4C111.46,44.22,112.66,41.37,114.53,42.12z M102.99,42.44c-2.33,0.07-4.29-2.5-4.39-5.74
			c-0.1-3.24,1.7-5.92,4.03-5.99c2.33-0.07,4.29,2.5,4.39,5.74C107.12,39.68,105.32,42.37,102.99,42.44z"/>
		<path style="fill:none;" d="M103.34,82.89c2.13-0.07,4.27,0.16,6.26,0.96c0.21-1.06,0.3-2.15,0.3-3.23
			c0-5.28-1.75-10.58-3.99-15.32C102.54,70.45,101.65,77.01,103.34,82.89z"/>
		<path style="fill:none;" d="M110.61,91.23c0.56,1.71,0.8,3.63,0.59,5.42h3.59c0.42-3-0.37-6.57-2.34-8.92
			c-2.28-2.73-5.79-3.4-9.21-3.31C106.75,85.35,109.5,87.79,110.61,91.23z"/>
		<path style="fill:none;" d="M98.65,87.62c-4.08-1.31-8.85-0.6-12.99,0.07c-4.03,0.66-8.17,1.59-11.88,3.34
			c-1.21,0.57-2.6,1.28-3.43,2.37c-0.75,0.98-0.6,2.06-0.49,3.24h0.01h0h34.62C105.12,92.54,102.53,88.87,98.65,87.62z"/>
		<path style="fill:none;" d="M62.46,31.69c-1.34-1.31-3.18-2.12-5.21-2.12c-4.1,0-7.43,3.3-7.43,7.35s3.33,7.35,7.43,7.35
			c2.1,0,4-0.87,5.36-2.27c-0.33-1.43-0.5-3.03-0.5-4.84C62.1,35.13,62.22,33.32,62.46,31.69z"/>
		<path style="fill:none;" d="M106.32,87.57c-2.87-2.28-6.69-2.28-10.17-2.02c5.39,0.58,9.56,3.98,9.93,9.51
			c0.04,0.53,0.04,1.06-0.03,1.59h3.59C110.11,93.42,108.94,89.64,106.32,87.57z"/>
		<polygon style="fill:none;" points="225.37,33.71 215.07,64.17 235.85,64.17 225.56,33.71 		"/>
		<path style="fill:#7C00DD;" d="M102.63,30.71c-2.33,0.07-4.13,2.75-4.03,5.99c0.1,3.24,2.07,5.81,4.39,5.74
			c2.33-0.07,4.13-2.75,4.03-5.99C106.92,33.21,104.95,30.64,102.63,30.71z"/>
		<path style="fill:#7C00DD;" d="M121.1,43.76c-0.12-2.34-0.66-4.66-1.55-6.84c-0.82-2.01-2.14-3.69-3.08-5.62
			c-1.94-3.97-2.82-8.38-4.43-12.48c-6.9-17.64-29.53-23-45.89-15.57c-7.34,3.33-13.01,9.29-16.63,16.36
			c5.61-1.91,11.96-0.8,16.58,2.89c-0.18,0.25-0.36,0.49-0.53,0.74c-7.7-5.59-18.94-2.99-23.4,5.34
			c-4.31,8.04-0.54,18.35,7.96,21.83c5.15,2.11,11.18,1.35,15.62-1.97c0.19,0.23,0.39,0.45,0.59,0.67
			c-5.18,4.29-12.63,5.23-18.72,2.32c2.21,3.49,5.3,6.36,8.82,8.53c-2.61,4.68-4.38,9.95-4.51,15.32
			c-0.11,4.89,0.15,10.16,1.94,14.77c-4.54-0.11-9.74-0.96-12.93-4.47c-3.01-3.32-3.59-8.18-3.58-12.46
			c0.01-5.28,1.19-10.33,1.9-15.53C40,52.42,39.54,47,37.3,42.22c-4.5-9.61-16.61-15.26-26.7-10.74C0.75,35.91-4.02,49.13,4.2,57.39
			c3.35,3.36,8.44,5.14,13.1,3.76c4.37-1.29,7.86-5.19,8.3-9.74c0.44-4.54-2.71-9.29-7.34-10.23c-2.35-0.47-4.61,1.27-4.45,3.72
			c0.07,1.07,0.64,2.07,1.53,2.68c0.98,0.68,2.24,0.64,2.83,1.83c1.14,2.27-1.42,4.7-3.53,5.02c-2.53,0.4-5.12-1.38-6.39-3.43
			C5.3,46.23,8.73,40.3,13.35,38.11c4.43-2.11,9.76-0.86,13.47,2.13c3.21,2.59,4.97,6.45,5.43,10.47c0.58,5.03-0.97,9.99-1.58,14.94
			c-0.61,4.95-0.85,10.07,0.19,14.98c0.96,4.54,3.16,8.77,6.85,11.71c3.69,2.94,8.36,4.26,13.01,4.7c2.92,0.28,5.86,0.22,8.77-0.01
			c1.36,0.83,2.94,1.47,4.79,1.9c0.66,2.12,2.65,3.6,4.93,3.6h46.25c5.72,0,5.75-6.85,5.04-10.87c-0.74-4.17-2.91-8.03-6.51-10.41
			c-0.03-7.42-2.17-13.49-5.27-19.37C116.38,58.7,121.55,52.2,121.1,43.76z M57.25,44.28c-4.1,0-7.43-3.3-7.43-7.35
			s3.33-7.35,7.43-7.35c2.03,0,3.87,0.81,5.21,2.12c-0.24,1.63-0.35,3.44-0.35,5.48c0,1.81,0.17,3.41,0.5,4.84
			C61.25,43.41,59.35,44.28,57.25,44.28z M104.5,96.65H69.88h0h-0.01c-0.12-1.18-0.27-2.26,0.49-3.24c0.83-1.09,2.21-1.8,3.43-2.37
			c3.7-1.75,7.85-2.69,11.88-3.34c4.14-0.68,8.92-1.38,12.99-0.07C102.53,88.87,105.12,92.54,104.5,96.65z M109.64,96.65h-3.59
			c0.06-0.53,0.06-1.06,0.03-1.59c-0.38-5.54-4.54-8.93-9.93-9.51c3.48-0.25,7.31-0.25,10.17,2.02
			C108.94,89.64,110.11,93.42,109.64,96.65z M112.46,87.73c1.96,2.35,2.75,5.92,2.34,8.92h-3.59c0.21-1.79-0.03-3.71-0.59-5.42
			c-1.12-3.44-3.86-5.88-7.37-6.81C106.66,84.33,110.17,84.99,112.46,87.73z M109.9,80.62c0,1.08-0.09,2.17-0.3,3.23
			c-1.99-0.8-4.13-1.03-6.26-0.96c-1.69-5.88-0.81-12.44,2.57-17.59C108.15,70.04,109.9,75.34,109.9,80.62z M112.69,45.45l2.43,2.4
			c0.13,0.13,0.29,0.24,0.44,0.33c-2.13,8.26-12.07,10.68-19.52,11.42c-8.66-0.55-18.24-7.55-16.36-17.08
			c0.74-3.73,3.37-6.99,5.01-10.38c1.44-2.97,2.36-6.24,4.27-8.96c3.47-4.93,9.37-7.88,15.44-7.61c3.04,4.12,4.11,9.1,5.77,13.84
			c0.73,2.08,1.53,4.14,2.72,6.01c1.42,2.2,2.49,4.5,2.88,7.11l-1.26-0.4C112.66,41.37,111.46,44.22,112.69,45.45z"/>
		<path style="fill:#7C00DD;" d="M171.61,49.4c-3.38-0.41-6.05-0.78-8-1.1c-3.51-0.64-6.07-1.79-7.66-3.44
			c-1.59-1.63-2.39-3.44-2.39-5.45c0.07-3.35,1.25-5.87,3.56-7.56c2.21-1.63,4.98-2.44,8.29-2.44c6.41,0.13,12.27,1.91,17.61,5.36
			l6-8.7c-6.54-4.62-14.23-7.03-23.07-7.22c-7.35,0.06-13.02,1.95-17.02,5.64c-4.13,3.73-6.19,8.64-6.19,14.73
			c0,5.07,1.64,9.37,4.93,12.91c3.19,3.44,7.84,5.66,13.95,6.65c3.41,0.48,6.55,0.91,9.41,1.29c6.24,1.05,9.33,4.18,9.27,9.37
			c-0.13,6.35-4.81,9.58-14.05,9.71c-7.8-0.06-14.53-2.37-20.19-6.94l-7.07,7.94c7.58,6.38,16.63,9.57,27.17,9.57
			c16.29-0.19,24.61-6.95,24.97-20.28c0-4.94-1.58-9.28-4.73-13.01C183.21,52.63,178.28,50.29,171.61,49.4z"/>
		<path style="fill:#7C00DD;" d="M229.95,19.41h-9.02l-25.85,69.73h11.41l5.46-15.59h26.97l5.51,15.59h11.37L229.95,19.41z
			 M215.07,64.17l10.29-30.47h0.19l10.29,30.47H215.07z"/>
	</g>
	<g>
		<path style="fill:#3D3D3D;" d="M284.68,71.02h14.49v3.64c-0.07,4.37-1.46,7.89-4.19,10.57c-2.73,2.81-6.19,4.21-10.39,4.21
			c-2.54,0-4.72-0.53-6.54-1.58c-1.85-0.89-3.35-2.06-4.49-3.49c-1.4-1.5-2.33-3.46-2.78-5.88c-0.52-2.42-0.78-7.06-0.78-13.92
			c0-6.85,0.26-11.53,0.78-14.01c0.46-2.36,1.38-4.29,2.78-5.79c1.14-1.44,2.63-2.63,4.49-3.59c1.82-0.92,4-1.42,6.54-1.48
			c3.45,0.06,6.37,1.04,8.78,2.92c2.31,1.98,3.9,4.37,4.78,7.17h11.41c-1.14-5.83-3.87-10.73-8.19-14.68
			c-4.32-3.92-9.92-5.91-16.78-5.98c-5.59,0.06-10.26,1.37-14,3.92c-3.8,2.52-6.57,5.39-8.29,8.61c-1.07,1.69-1.87,3.91-2.39,6.65
			c-0.49,2.74-0.73,8.16-0.73,16.26c0,7.97,0.24,13.36,0.73,16.17c0.26,1.5,0.59,2.74,0.98,3.73c0.42,0.96,0.89,1.96,1.41,3.01
			c1.72,3.22,4.49,6.06,8.29,8.51c3.74,2.55,8.41,3.89,14,4.02c7.25-0.13,13.27-2.54,18.05-7.22c4.75-4.72,7.19-10.57,7.32-17.55
			V61.03h-25.27V71.02z"/>
		<path style="fill:#3D3D3D;" d="M360.96,64.37c-0.07,4.75-1.43,8.37-4.1,10.86c-2.73,2.61-6.19,3.92-10.39,3.92
			c-4.19,0-7.63-1.31-10.29-3.92c-2.73-2.49-4.13-6.11-4.19-10.86V19.41h-10.78v46.1c0.07,7.33,2.54,13.15,7.41,17.46
			c4.78,4.43,10.73,6.68,17.85,6.74c7.25-0.06,13.25-2.31,18-6.74c4.71-4.3,7.14-10.12,7.27-17.46v-46.1h-10.78V64.37z"/>
		<rect x="385.45" y="19.41" style="fill:#3D3D3D;" width="10.78" height="69.73"/>
	</g>
</g>
</svg>
