<svg xmlns="http://www.w3.org/2000/svg" viewBox="0 0 143 37">
  <g>
    <path d="M41.34,15.2l.45.14a6.51,6.51,0,0,0-1-2.56,10.09,10.09,0,0,1-1-2.17,17.84,17.84,0,0,0-2.09-5,6.51,6.51,0,0,0-5.57,2.75,22.24,22.24,0,0,0-1.54,3.23C30,12.82,29,14,28.76,15.34c-.68,3.44,2.78,6,5.9,6.17,2.69-.27,6.28-1.14,7.05-4.12a1,1,0,0,1-.16-.12l-.88-.87C40.22,16,40.66,14.93,41.34,15.2Zm-4.17.12c-.84,0-1.55-.91-1.58-2.07s.61-2.14,1.45-2.17,1.55.9,1.59,2.07S38,15.29,37.17,15.32Z" transform="translate(0 0)" style="fill: none"/>
    <path d="M37.3,29.92a5.44,5.44,0,0,1,2.26.34,6.49,6.49,0,0,0,.1-1.16,13.2,13.2,0,0,0-1.44-5.53A7.8,7.8,0,0,0,37.3,29.92Z" transform="translate(0 0)" style="fill: none"/>
    <path d="M39.92,32.92a4.65,4.65,0,0,1,.21,2h1.3a4.31,4.31,0,0,0-.84-3.22,4,4,0,0,0-3.33-1.19A3.7,3.7,0,0,1,39.92,32.92Z" transform="translate(0 0)" style="fill: none"/>
    <path d="M35.6,31.62a10.46,10.46,0,0,0-4.69,0,15.87,15.87,0,0,0-4.28,1.21,3.24,3.24,0,0,0-1.24.85,1.54,1.54,0,0,0-.18,1.17h12.5A3,3,0,0,0,35.6,31.62Z" transform="translate(0 0)" style="fill: none"/>
    <path d="M22.54,11.44A2.68,2.68,0,0,0,18,13.33,2.67,2.67,0,0,0,20.66,16a2.64,2.64,0,0,0,1.93-.82,8.24,8.24,0,0,1-.18-1.74A14.61,14.61,0,0,1,22.54,11.44Z" transform="translate(0 0)" style="fill: none"/>
    <path d="M38.37,31.6a5.15,5.15,0,0,0-3.67-.73,3.72,3.72,0,0,1,3.59,3.44,3.62,3.62,0,0,1,0,.57h1.29A3.63,3.63,0,0,0,38.37,31.6Z" transform="translate(0 0)" style="fill: none"/>
    <polygon points="81.33 12.16 77.62 23.16 85.12 23.16 81.41 12.16 81.33 12.16" style="fill: none"/>
    <path d="M37,11.08c-.84,0-1.49,1-1.45,2.17s.74,2.09,1.58,2.07,1.49-1,1.46-2.17S37.88,11.06,37,11.08Z" transform="translate(0 0)" style="fill: #5b02c1"/>
    <path d="M43.71,15.79a7.72,7.72,0,0,0-.56-2.46c-.3-.73-.77-1.34-1.11-2-.7-1.44-1-3-1.6-4.51C38,.42,29.78-1.51,23.88,1.17a12.7,12.7,0,0,0-6,5.91,6.37,6.37,0,0,1,6,1l-.19.27a5.82,5.82,0,0,0-8.45,1.92,5.7,5.7,0,0,0,2.87,7.88,5.79,5.79,0,0,0,5.64-.71,2.62,2.62,0,0,0,.22.25,6.39,6.39,0,0,1-6.76.83,9.78,9.78,0,0,0,3.19,3.08,11.92,11.92,0,0,0-1.63,5.53,14,14,0,0,0,.7,5.33c-1.64,0-3.51-.34-4.67-1.61a6.67,6.67,0,0,1-1.29-4.5,40.74,40.74,0,0,1,.69-5.61,9.84,9.84,0,0,0-.72-5.54c-1.62-3.47-6-5.51-9.63-3.88s-5.28,6.37-2.32,9.35a4.89,4.89,0,0,0,4.73,1.36,4.22,4.22,0,0,0,3-3.52,3.49,3.49,0,0,0-2.65-3.69A1.31,1.31,0,0,0,5,16.2a1.3,1.3,0,0,0,.55,1c.36.25.81.23,1,.66.41.82-.52,1.69-1.28,1.81A2.45,2.45,0,0,1,3,18.4c-1.07-1.71.17-3.85,1.84-4.65a4.69,4.69,0,0,1,4.86.77,5.61,5.61,0,0,1,2,3.78c.21,1.81-.35,3.6-.57,5.39a16.64,16.64,0,0,0,.06,5.41,7.18,7.18,0,0,0,2.48,4.22A8.77,8.77,0,0,0,18.3,35a18.64,18.64,0,0,0,3.17,0,6.19,6.19,0,0,0,1.73.68A1.85,1.85,0,0,0,25,37h16.7c2.06,0,2.07-2.47,1.81-3.92a5.6,5.6,0,0,0-2.34-3.76,14.59,14.59,0,0,0-1.91-7A6.65,6.65,0,0,0,43.71,15.79Zm-23,.19a2.66,2.66,0,1,1,0-5.31,2.7,2.7,0,0,1,1.88.77,14.61,14.61,0,0,0-.13,2,8.24,8.24,0,0,0,.18,1.74A2.64,2.64,0,0,1,20.66,16Zm17.05,18.9H25.21a1.54,1.54,0,0,1,.18-1.17,3.24,3.24,0,0,1,1.24-.85,15.87,15.87,0,0,1,4.28-1.21,10.46,10.46,0,0,1,4.69,0A3,3,0,0,1,37.71,34.88Zm1.86,0H38.28a3.62,3.62,0,0,0,0-.57,3.72,3.72,0,0,0-3.59-3.44,5.15,5.15,0,0,1,3.67.73A3.63,3.63,0,0,1,39.57,34.88Zm1-3.22a4.31,4.31,0,0,1,.84,3.22h-1.3a4.65,4.65,0,0,0-.21-2,3.7,3.7,0,0,0-2.66-2.45A4,4,0,0,1,40.59,31.66Zm-.93-2.56a6.49,6.49,0,0,1-.1,1.16,5.44,5.44,0,0,0-2.26-.34,7.8,7.8,0,0,1,.92-6.35A13.2,13.2,0,0,1,39.66,29.1Zm1-12.7.88.87a1,1,0,0,0,.16.12c-.77,3-4.36,3.85-7.05,4.12-3.12-.2-6.58-2.73-5.9-6.17C29,14,30,12.82,30.57,11.6a22.24,22.24,0,0,1,1.54-3.23,6.51,6.51,0,0,1,5.57-2.75,17.84,17.84,0,0,1,2.09,5,10.09,10.09,0,0,0,1,2.17,6.51,6.51,0,0,1,1,2.56l-.45-.14C40.66,14.93,40.22,16,40.67,16.4Z" transform="translate(0 0)" style="fill: #5b02c1"/>
    <path d="M61.94,17.83c-1.22-.15-2.19-.28-2.89-.4a4.94,4.94,0,0,1-2.76-1.24,2.76,2.76,0,0,1-.87-2,3.25,3.25,0,0,1,1.29-2.73,5,5,0,0,1,3-.88,12,12,0,0,1,6.36,1.93L68.22,9.4a14.68,14.68,0,0,0-8.33-2.6,8.83,8.83,0,0,0-6.14,2,6.83,6.83,0,0,0-2.23,5.32,6.62,6.62,0,0,0,1.77,4.66,8.5,8.5,0,0,0,5,2.4l3.4.47c2.25.38,3.36,1.5,3.34,3.38Q65,28.5,60,28.56a11.36,11.36,0,0,1-7.29-2.5l-2.55,2.87A14.72,14.72,0,0,0,60,32.38q8.82-.1,9-7.32a7.07,7.07,0,0,0-1.71-4.7A8.09,8.09,0,0,0,61.94,17.83Z" transform="translate(0 0)" style="fill: #5b02c1"/>
    <path d="M83,7H79.73L70.4,32.17h4.12l2-5.63h9.74l2,5.63h4.1ZM77.62,23.16l3.72-11h.07l3.71,11Z" transform="translate(0 0)" style="fill: #5b02c1"/>
  </g>
  <g>
    <path d="M102.74,25.63H108v1.31a5.24,5.24,0,0,1-1.51,3.82,5,5,0,0,1-3.75,1.52,4.61,4.61,0,0,1-2.36-.57,4.48,4.48,0,0,1-1.62-1.26,4.16,4.16,0,0,1-1-2.13,29.56,29.56,0,0,1-.28-5,30.47,30.47,0,0,1,.28-5.06,4.11,4.11,0,0,1,1-2.08,4.92,4.92,0,0,1,1.62-1.3,5.44,5.44,0,0,1,2.36-.53,5.09,5.09,0,0,1,3.16,1.05A5.51,5.51,0,0,1,107.6,18h4.12a9.45,9.45,0,0,0-3-5.3,8.76,8.76,0,0,0-6.05-2.16,9,9,0,0,0-5.06,1.42,8.77,8.77,0,0,0-3,3.1,6.86,6.86,0,0,0-.86,2.4,40.35,40.35,0,0,0-.27,5.87,40.52,40.52,0,0,0,.27,5.84,6.59,6.59,0,0,0,.35,1.34c.15.35.32.71.51,1.09a8.47,8.47,0,0,0,3,3.07,9.49,9.49,0,0,0,11.57-1.15,8.87,8.87,0,0,0,2.64-6.34V22h-9.12Z" transform="translate(0 0)" style="fill: #3d3d3d"/>
    <path d="M130.27,23.23A5,5,0,0,1,125,28.56a5,5,0,0,1-5.22-5.33V7h-3.89V23.64a8.05,8.05,0,0,0,2.67,6.3,9.8,9.8,0,0,0,12.94,0,8.29,8.29,0,0,0,2.62-6.3V7h-3.89Z" transform="translate(0 0)" style="fill: #3d3d3d"/>
    <rect x="139.11" y="7" width="3.89" height="25.17" style="fill: #3d3d3d"/>
  </g>
</svg>
